<?xml version="1.0" encoding="UTF-8"?>
<svg width="16px" height="16px" viewBox="0 0 16 16" version="1.1" xmlns="http://www.w3.org/2000/svg" xmlns:xlink="http://www.w3.org/1999/xlink">
    <!-- Generator: Sketch 60.1 (88133) - https://sketch.com -->
    <title>自动化/导航图标/引流推介</title>
    <desc>Created with Sketch.</desc>
    <defs>
        <linearGradient x1="0%" y1="100%" x2="100%" y2="0%" id="linearGradient-1">
            <stop stop-color="#5A4AED" offset="0%"></stop>
            <stop stop-color="#E697F3" offset="100%"></stop>
        </linearGradient>
    </defs>
    <g id="自动化/导航图标/引流推介" stroke="none" stroke-width="1" fill="none" fill-rule="evenodd">
        <rect id="矩形" fill-opacity="0" fill="#000000" opacity="0" x="0" y="0" width="16" height="16"></rect>
        <path d="M13,1 C14.1045695,1 15,1.8954305 15,3 L15,13 C15,14.1045695 14.1045695,15 13,15 L3,15 C1.8954305,15 1,14.1045695 1,13 L1,3 C1,1.8954305 1.8954305,1 3,1 L13,1 Z M13,2 L3,2 C2.48716416,2 2.06449284,2.38604019 2.00672773,2.88337887 L2,3 L2,13 C2,13.5128358 2.38604019,13.9355072 2.88337887,13.9932723 L3,14 L13,14 C13.5128358,14 13.9355072,13.6139598 13.9932723,13.1166211 L14,13 L14,3 C14,2.48716416 13.6139598,2.06449284 13.1166211,2.00672773 L13,2 Z M4,11 C4.55228475,11 5,11.4477153 5,12 C5,12.5522847 4.55228475,13 4,13 C3.44771525,13 3,12.5522847 3,12 C3,11.4477153 3.44771525,11 4,11 Z M8.5,3.5 L8.5,7.5 L8.58987563,7.50805567 C8.79396869,7.54509963 8.95490037,7.70603131 8.99194433,7.91012437 L9,8 L8.99194433,8.08987563 C8.95490037,8.29396869 8.79396869,8.45490037 8.58987563,8.49194433 L8.5,8.5 L4.611,8.5 L8.084,11.353 L10.8982284,9.04115907 L10.9727868,8.99033031 C11.1798876,8.87497534 11.4461485,8.92043524 11.6019667,9.11009604 C11.757785,9.29975684 11.7507117,9.56977794 11.5973607,9.75055681 L11.5330298,9.81383441 L8.40179876,12.3863377 L8.3291264,12.4360649 C8.17742186,12.5213117 7.99137426,12.5213117 7.83966971,12.4360649 L7.76699736,12.3863377 L2.89822838,8.38633767 L2.83324332,8.3231324 C2.58268367,8.0332417 2.75130603,7.56744053 3.13109044,7.50662211 L3.21562908,7.5 L7.5,7.5 L7.5,3.5 L8.5,3.5 Z" id="形状" fill="url(#linearGradient-1)" fill-rule="nonzero"></path>
    </g>
</svg>